
        <svg xmlns="http://www.w3.org/2000/svg" xmlns:xlink="http://www.w3.org/1999/xlink" version="1.1" width="3300" 
        height="1215" viewBox="0 0 3300 1215">
			<rect fill="#127780" width="3300" height="1215"/>
			<g transform="scale(15) translate(10, 10)">
				<defs id="SvgjsDefs1192"></defs><g id="SvgjsG1193" featureKey="nameContainer" transform="matrix(1,0,0,1,0,0)" fill="#ffffff"><rect y="0" height="1" width="1" opacity="0"></rect><rect y="56" width="200" height="5"></rect></g><g id="SvgjsG1194" featureKey="nameFeature-0" transform="matrix(0.9265447230736017,0,0,0.9265447230736017,-0.8422755244260663,5.9262664882080305)" fill="#ffffff"><path d="M1.5775 12.780999999999999 l-0.66845 -0.82888 l10.508 0 l0 4.2246 l-7.246 0 l1.0963 0.82888 l0 6.8449 l4.3048 0 l0 4.2246 l-5.4011 0 l1.0963 0.82888 l0 11.043 l-3.6898 0 l0 -27.166 z M14.385001604278076 31.604300000000002 l3.7701 0 l-1.8717 -15.348 z M9.652401604278076 40.053476 l3.3422 -27.193 l-0.66845 -0.80214 l7.139 0 l3.4492 27.995 l-3.7166 0 l-0.50802 -4.2246 l-5.9091 -0.026738 l0.9893 0.7754 l-0.42781 3.4759 l-3.6898 0 z M35.40067914438503 14.678999999999998 l0 5.7754 l-3.6631 0 l0 -4.2246 l-5.4011 0 l1.0695 0.82888 l0 3.3957 l7.9947 9.8128 l0 4.2246 l0 2.8877 c0 1.4171 -1.1497 2.6471 -2.6471 2.6471 l-6.3636 0 c-1.4973 0 -2.6471 -1.2299 -2.6471 -2.6471 l0 -5.9626 l3.6631 0 l0 4.385 l4.3316 0 l0 -4.2246 l-7.9947 -9.8128 l0 -7.0856 c0 -1.4973 1.1497 -2.6471 2.6471 -2.6471 l6.3636 0 c1.4973 0 2.6471 1.1497 2.6471 2.6471 z M40.053493582887704 16.203 l-3.984 0 l0 -4.2513 l11.658 0 l0 4.2513 l-5.0802 0 l1.0963 0.80214 l0 22.968 l-3.6898 0 l0 -23.77 z M50.962541711229946 31.604300000000002 l3.7701 0 l-1.8717 -15.348 z M46.22994171122995 40.053476 l3.3422 -27.193 l-0.66845 -0.80214 l7.139 0 l3.4492 27.995 l-3.7166 0 l-0.50802 -4.2246 l-5.9091 -0.026738 l0.9893 0.7754 l-0.42781 3.4759 l-3.6898 0 z M64.49196096256685 23.85 l4.3048 0 l0 -7.6738 l-5.4011 0 l1.0963 0.82888 l0 6.8449 z M72.45986096256685 14.626000000000001 l0 10.802 c0 1.4171 -1.1497 2.6471 -2.6471 2.6471 l-6.4171 0 l1.0963 0.82888 l0 11.07 l-3.6898 0 l0 -27.193 l-0.66845 -0.82888 l9.6791 0 c1.4973 0 2.6471 1.1765 2.6471 2.6738 z M77.05879839572194 39.946524 l-3.6898 0 l0 -27.166 l-0.66845 -0.82888 l4.3583 0 l0 27.995 z M84.7059310160428 28.102 l-5.8289 0 l0 -4.2246 l5.8289 0 l0 4.2246 z M90.93580374331553 31.604300000000002 l3.7701 0 l-1.8717 -15.348 z M86.20320374331553 40.053476 l3.3422 -27.193 l-0.66845 -0.80214 l7.139 0 l3.4492 27.995 l-3.7166 0 l-0.50802 -4.2246 l-5.9091 -0.026738 l0.9893 0.7754 l-0.42781 3.4759 l-3.6898 0 z M100.10695347593584 12.004999999999999 l5.2406 0 l3.4225 15.267 l0 -15.241 l3.6631 0 l0 27.968 l-4.5722 0 l-3.3957 -15.187 l0 15.214 l-3.6898 0 l0 -27.193 z M118.23530695187168 35.8021 l4.3048 0 l0 -19.545 l-5.4011 0 l1.0963 0.82888 l0 18.717 z M126.23010695187168 14.678999999999998 l0 22.701 c0 1.4973 -1.1765 2.6471 -2.6738 2.6471 l-9.0107 0 l0 -4.2246 l0 -22.941 l-0.66845 -0.82888 l9.6791 0 c1.4706 0 2.6738 1.2299 2.6738 2.6471 z M133.85031604278078 28.102 l-5.8289 0 l0 -4.2246 l5.8289 0 l0 4.2246 z M135.34758877005348 12.032 l4.3583 0 l0 23.77 l6.1497 0 l0 4.2246 l-9.8396 0 l0 -0.026738 l0 -4.1979 l0 -22.968 z M150.0801759358289 35.8021 l4.3316 0 l0 -19.545 l-5.4011 0 l1.0695 0.82888 l0 18.717 z M158.0744759358289 14.678999999999998 l0 22.701 c0 1.4973 -1.1497 2.6471 -2.6471 2.6471 l-6.3636 0 c-1.4973 0 -2.6471 -1.1497 -2.6471 -2.6471 l0 -22.701 c0 -1.4171 1.1497 -2.6471 2.6471 -2.6471 l6.3636 0 c1.4973 0 2.6471 1.2299 2.6471 2.6471 z M171.2835080213904 14.678999999999998 l0 7.1658 l-3.6631 0 l0 -5.5882 l-5.4011 0 l1.0695 0.82888 l0 18.717 l4.3316 0 l0 -11.07 l-1.0963 -0.82888 l4.7594 0 l0 16.123 l-9.0107 0 c-1.4973 0 -2.6471 -1.1497 -2.6471 -2.6471 l0 -22.701 c0 -1.4171 1.1497 -2.6471 2.6471 -2.6471 l6.3636 0 c1.4973 0 2.6471 1.2299 2.6471 2.6471 z M184.46532620320858 14.678999999999998 l0 7.1658 l-3.6631 0 l0 -5.5882 l-5.4011 0 l1.0695 0.82888 l0 18.717 l4.3316 0 l0 -11.07 l-1.0963 -0.82888 l4.7594 0 l0 16.123 l-9.0107 0 c-1.4973 0 -2.6471 -1.1497 -2.6471 -2.6471 l0 -22.701 c0 -1.4171 1.1497 -2.6471 2.6471 -2.6471 l6.3636 0 c1.4973 0 2.6471 1.2299 2.6471 2.6471 z M189.70585721925136 39.946524 l-3.6898 0 l0 -27.166 l-0.66845 -0.82888 l4.3583 0 l0 27.995 z M191.20321016042783 12.004999999999999 l5.2406 0 l3.4225 15.267 l0 -15.241 l3.6631 0 l0 27.968 l-4.5722 0 l-3.3957 -15.187 l0 15.214 l-3.6898 0 l0 -27.193 z M216.76479144385024 14.678999999999998 l0 7.1658 l-3.6631 0 l0 -5.5882 l-5.4011 0 l1.0695 0.82888 l0 18.717 l4.3316 0 l0 -11.07 l-1.0963 -0.82888 l4.7594 0 l0 16.123 l-9.0107 0 c-1.4973 0 -2.6471 -1.1497 -2.6471 -2.6471 l0 -22.701 c0 -1.4171 1.1497 -2.6471 2.6471 -2.6471 l6.3636 0 c1.4973 0 2.6471 1.2299 2.6471 2.6471 z"></path></g>
			</g>
		</svg>
	